PathFileType  4	(X/Y/Z) C:\Users\antoi\Documents\MyRepositories\mobilecap\ResultsAnalysis
DataRate	CameraRate	NumFrames	NumMarkers	Units	OrigDataRate	OrigDataStartFrame	OrigNumFrames
100.0	100.0	5	51	mm	100.0	157	250
Frame#	Time	r_knee			r_shank_antsup			r_ankle			r_calc			r_5meta			r_toe			L_knee			L_shank_antsup			L_ankle			L_calc			L_5meta			L_toe			r_sh2			r_sh3			r_sh4			L_sh2			L_sh3			r_thigh1			r_thigh2			r_thigh3			r_thigh4			r_thigh5			L_thigh1			L_thigh2			L_thigh3			L_thigh4			r.ASIS			r.PSIS			L.ASIS			L.PSIS			C7			R_Shoulder			L_Shoulder			R_Sternum			L_Sternum			R_humerus			R_elbow_med			R_elbow_lat			R_forearm			R_wrist_radius			R_wrist_ulna			L_humerus			L_elbow_med			L_elbow_lat			L_forearm			L_wrist_radius			L_wrist_ulna			R_HJC			L_HJC			R_HJC_reg			L_HJC_reg			
		X1	Y1	Z1	X2	Y2	Z2	X3	Y3	Z3	X4	Y4	Z4	X5	Y5	Z5	X6	Y6	Z6	X7	Y7	Z7	X8	Y8	Z8	X9	Y9	Z9	X10	Y10	Z10	X11	Y11	Z11	X12	Y12	Z12	X13	Y13	Z13	X14	Y14	Z14	X15	Y15	Z15	X16	Y16	Z16	X17	Y17	Z17	X18	Y18	Z18	X19	Y19	Z19	X20	Y20	Z20	X21	Y21	Z21	X22	Y22	Z22	X23	Y23	Z23	X24	Y24	Z24	X25	Y25	Z25	X26	Y26	Z26	X27	Y27	Z27	X28	Y28	Z28	X29	Y29	Z29	X30	Y30	Z30	X31	Y31	Z31	X32	Y32	Z32	X33	Y33	Z33	X34	Y34	Z34	X35	Y35	Z35	X36	Y36	Z36	X37	Y37	Z37	X38	Y38	Z38	X39	Y39	Z39	X40	Y40	Z40	X41	Y41	Z41	X42	Y42	Z42	X43	Y43	Z43	X44	Y44	Z44	X45	Y45	Z45	X46	Y46	Z46	X47	Y47	Z47	X48	Y48	Z48	X49	Y49	Z49	X50	Y50	Z50	X51	Y51	Z51	

157	1.56000000	-15.45500	413.49963	-439.44163	-5.84578	314.16835	-443.62336	-248.80053	99.03797	-451.51931	-320.87817	64.75137	-505.86110	-151.85213	43.41791	-396.66591	-107.49553	67.78568	-447.03784	21.61820	452.13993	-779.18458	52.95764	356.47377	-764.71027	-164.25685	111.41353	-762.06412	-252.27310	75.46575	-711.70874	-83.48556	43.96788	-807.79128	-27.28986	60.03512	-754.84544	-77.56411	224.61773	-447.99265	-59.79017	354.35857	-408.96836	-134.59410	270.64813	-404.19848	-10.47646	405.28357	-808.47826	-72.75245	300.23533	-812.96402	-204.85257	609.87397	-413.81961	-110.44438	556.22332	-430.00081	-116.98402	491.86292	-404.07334	-262.21631	512.63592	-411.34782	-159.06239	458.16521	-425.08899	-149.51852	638.69669	-771.45366	-22.18057	580.61752	-755.74497	-189.12386	548.81810	-817.88091	-70.34801	490.82267	-794.62333	-224.13567	690.27103	-473.56556	-403.82210	771.21225	-560.66979	-203.06824	695.77096	-722.03069	-392.41738	773.78446	-655.95978	-151.93245	1129.80984	-577.41412	-66.29200	1101.29242	-414.57739	-50.51891	1102.16579	-722.49466	-34.80178	1031.26493	-554.48216	-27.19770	1038.13055	-593.39777	-91.61712	1004.64385	-323.39067	-208.32512	830.69791	-278.53027	-227.62183	878.77716	-225.57492	-142.69902	906.28263	-202.94545	15.48198	931.76599	-218.58722	15.62847	895.17620	-185.63560	-128.20186	1001.70586	-803.95245	-322.07689	913.63597	-794.27234	-306.51821	945.25980	-871.39525	-237.68612	910.69474	-883.04739	-99.18506	825.22022	-854.55004	-130.60741	796.90955	-885.83374	-319.99511	624.82143	-504.96284	-304.08439	630.69307	-693.76570	-310.25386	634.08396	-520.67822	-290.70781	638.49966	-684.06804	
158	1.57000000	-12.95228	409.68344	-438.20059	-3.73430	311.18487	-441.90089	-248.95686	98.93191	-451.08144	-321.03058	64.57372	-505.51709	-151.88577	43.11892	-396.41595	-107.62894	67.67813	-446.78211	26.89077	450.12646	-781.99759	57.26934	354.31812	-767.65235	-163.43371	112.36981	-761.74308	-251.46057	77.60517	-710.80242	-83.56981	44.21763	-807.60846	-27.18999	59.77637	-755.12905	-76.18077	222.03626	-446.83082	-57.84925	351.65952	-407.62470	-133.16849	268.36319	-403.21799	-5.73162	404.05981	-810.70353	-69.81690	300.06488	-814.37492	-200.70906	606.38755	-414.05230	-106.71789	552.12306	-429.81143	-113.02502	488.38667	-403.36744	-258.16948	509.15465	-410.29242	-155.09912	454.53705	-424.35424	-145.55342	635.26660	-771.10801	-17.48863	578.54109	-757.17596	-183.92291	545.88830	-819.54305	-64.72303	488.70461	-797.20893	-220.27634	684.89022	-473.66139	-398.75311	767.24127	-561.14350	-197.00052	688.69213	-720.66599	-386.29614	769.35837	-657.31006	-139.04459	1130.22745	-576.60763	-61.91571	1091.12053	-412.61461	-44.00125	1093.51207	-721.92333	-28.64671	1026.08088	-551.50867	-21.57496	1031.76397	-592.57552	-86.36425	988.35078	-326.34223	-199.21521	808.54727	-295.35441	-218.47137	851.39431	-238.98633	-134.39323	877.90251	-213.77962	24.10776	904.62062	-227.27422	23.86738	866.05412	-196.35730	-117.06485	986.91756	-801.39565	-305.41479	888.00695	-786.11749	-291.04279	915.10519	-865.48242	-221.23451	881.38808	-874.26882	-80.52601	801.89703	-839.67534	-110.52177	770.75476	-869.74281	-316.61629	620.24814	-504.69557	-299.20206	625.02349	-693.39496	-306.43836	629.46899	-521.14814	-285.41432	633.04887	-683.51799	
159	1.58000000	-9.09907	407.55712	-436.72407	-0.77951	308.91946	-440.45848	-248.40983	99.34219	-451.04634	-320.63304	65.51995	-505.65420	-151.76472	42.84370	-396.34554	-107.37194	67.53537	-446.55275	32.09027	448.57973	-784.49130	61.66082	352.26339	-769.45992	-162.49419	113.37936	-760.53569	-250.23692	79.71881	-708.66894	-83.77518	44.53557	-806.99127	-26.95443	59.64856	-755.34900	-74.23969	220.51932	-445.84622	-54.67418	350.42078	-406.36324	-131.54947	267.12637	-403.20773	-0.62541	402.78196	-812.99895	-66.69665	300.00721	-815.24202	-196.70209	603.80049	-414.29348	-102.86672	549.43662	-429.48364	-108.73391	486.13795	-402.47601	-253.96011	506.43286	-408.94952	-150.75443	451.99159	-423.01001	-141.48894	632.01500	-770.98259	-12.77642	576.53413	-758.70895	-179.13486	542.84759	-820.68798	-59.40440	486.60399	-799.54372	-216.25995	680.40404	-472.81264	-394.03110	763.82788	-562.05011	-191.19042	682.21953	-718.96769	-380.69724	765.45344	-658.52005	-119.00983	1139.76050	-574.18839	-57.80885	1082.12299	-411.42143	-37.98794	1086.33874	-720.86933	-22.49276	1022.56549	-547.40465	-16.49466	1026.05370	-591.64177	-80.66644	974.40416	-329.47519	-188.05431	789.47767	-312.09555	-208.22792	827.45642	-252.37266	-124.43249	853.12039	-225.47102	34.44185	881.22339	-237.18154	34.35931	840.55038	-208.93280	-105.38678	974.16803	-799.52688	-286.81569	864.70091	-779.79194	-272.88889	887.50592	-860.50340	-201.67480	855.55522	-865.63410	-58.72463	783.29030	-824.25911	-86.66690	749.46468	-853.37396	-313.35597	616.52996	-503.96976	-294.33403	619.80472	-692.54535	-302.59353	625.24426	-520.68852	-280.22988	627.96673	-682.43547	
160	1.59000000	-4.29182	406.33589	-435.07622	2.48600	306.63059	-439.29932	-247.66444	100.04268	-451.22213	-320.06671	66.87889	-505.87522	-151.57005	42.47896	-396.62889	-107.01003	67.37421	-446.33959	37.06070	446.96643	-786.26108	65.90910	350.34125	-770.24033	-161.69619	114.09516	-758.45078	-248.83407	81.23095	-705.54307	-84.13375	44.87316	-806.08745	-26.59343	59.66625	-755.40387	-72.31434	219.55986	-445.03757	-50.53816	349.36691	-405.21665	-129.57321	266.63681	-403.53663	4.25073	401.20252	-814.63465	-63.34983	299.52236	-815.37327	-193.22923	601.93718	-414.28197	-98.80518	547.90158	-429.20097	-104.53846	484.88644	-401.26129	-249.95460	504.27842	-407.44019	-146.47524	450.25723	-421.07737	-137.56895	628.78465	-771.23423	-8.42148	574.35497	-760.17628	-174.99777	539.57214	-821.27264	-54.64185	484.17493	-801.24545	-212.42044	676.79576	-471.26829	-389.85230	760.61049	-563.17624	-185.99219	676.64866	-717.71836	-375.75789	761.93186	-659.53226	-107.59282	1142.77457	-573.20296	-53.96360	1074.13425	-410.13428	-32.18324	1080.10884	-719.90936	-17.73850	1018.97759	-544.98096	-11.97379	1021.26705	-590.78564	-74.26834	962.06068	-332.84790	-175.07954	772.58315	-326.90557	-196.37842	806.26043	-265.29580	-112.45195	831.25058	-237.70130	46.47738	862.14433	-248.37164	47.29684	819.35871	-223.00475	-93.18253	962.71920	-797.44265	-266.74623	842.75921	-775.72517	-252.08165	862.11510	-856.94844	-178.97036	833.32888	-857.84198	-34.08185	769.99770	-808.70019	-59.21136	733.29060	-837.25152	-310.18360	613.41538	-503.13508	-289.71387	615.13692	-691.58181	-298.98337	621.00347	-519.80033	-275.30364	623.22072	-681.65076	
161	1.60000000	0.64941	405.15237	-433.35986	5.66377	304.22445	-438.14873	-247.01954	100.88359	-451.21032	-319.55718	68.20453	-505.83364	-151.35335	41.99149	-397.05490	-106.72492	67.19685	-446.06883	41.50866	444.93224	-787.09017	69.70398	348.13664	-770.44861	-161.21569	114.35107	-755.84549	-247.68505	81.72858	-701.74066	-84.81243	45.10923	-804.99451	-26.38287	59.68781	-755.29858	-70.50761	218.67814	-444.13949	-46.52195	347.71025	-404.44474	-127.05078	266.40607	-403.32033	8.54517	399.16364	-814.97826	-60.10912	298.36094	-814.76117	-190.25890	600.34701	-414.12289	-95.14372	546.73954	-428.89636	-100.73954	483.93089	-399.95725	-246.34152	502.36943	-406.06855	-142.56840	448.78657	-419.20838	-133.80491	625.35476	-772.10341	-4.71519	571.59619	-761.47238	-171.54676	535.76155	-821.28317	-50.72358	481.04958	-801.98884	-208.98402	673.81168	-470.27555	-386.26374	757.44737	-564.60021	-181.43966	671.94886	-716.86655	-371.54325	758.73828	-660.63131	-107.72143	1135.80942	-574.09383	-50.33097	1067.41021	-408.70534	-26.42400	1074.63036	-718.95660	-14.58920	1014.90788	-544.60692	-8.03306	1017.51016	-590.00049	-67.07084	951.15750	-336.66943	-160.28351	757.38459	-339.51313	-182.16158	787.19611	-277.55776	-98.11077	811.84485	-249.85143	60.15789	847.72164	-260.72990	62.42369	803.28934	-237.69050	-80.14249	952.39098	-794.65854	-245.02057	821.87768	-773.47257	-228.39257	838.69077	-854.99903	-153.46396	814.64167	-851.29382	-7.10129	762.44939	-793.71044	-28.52487	722.31215	-821.90316	-307.20650	610.63133	-502.73320	-285.49264	611.03342	-691.04829	-295.54901	616.98070	-519.47018	-270.74132	619.15740	-681.33154	
